<svg xmlns="http://www.w3.org/2000/svg" width="24" height="24" viewBox="0 0 24 24"><path fill="#ffffff" d="M12 2C6.5 2 2 6.5 2 12s4.5 10 10 10 10-4.5 10-10S17.5 2 12 2m0 18c-4.41 0-8-3.59-8-8s3.59-8 8-8 8 3.59 8 8-3.59 8-8 8m.5-13H11v6l5.25 3.15.75-1.23-4.5-2.67z"/><path fill="#ffffff" d="M19.07 4.93l-1.41 1.41A7.91 7.91 0 0 1 20 12c0 4.42-3.58 8-8 8s-8-3.58-8-8 3.58-8 8-8c1.58 0 3.04.46 4.28 1.25l1.44-1.44A9.96 9.96 0 0 0 12 2C6.48 2 2 6.48 2 12s4.48 10 10 10 10-4.48 10-10c0-2.76-1.12-5.26-2.93-7.07"/></svg>
